<svg width="1728" height="1117" viewBox="0 0 1728 1117" fill="none" xmlns="http://www.w3.org/2000/svg">
    <g clip-path="url(#clip0_877_182)">
        <rect width="1728" height="1117" fill="white"/>
        <path d="M1671.28 -664.354C1812.11 -644.95 1908.46 -511.075 2047.9 -483.425C2230.88 -447.143 2474.5 -622.314 2596.21 -480.955C2714.12 -344.019 2534.89 -135.887 2499.78 41.3867C2474.9 167.018 2457.48 286.808 2419.93 409.251C2372.44 564.082 2369.25 743.944 2250.52 854.096C2123.09 972.33 1931.84 1067.87 1765.93 1016.03C1596.48 963.092 1585.49 714.13 1447.01 603.059C1315.75 497.785 1060.09 554.737 996.535 398.941C933.64 244.763 1155.03 109.384 1178.36 -55.4965C1204.79 -242.308 1020.38 -461.999 1139.11 -608.645C1253.66 -750.142 1490.94 -689.202 1671.28 -664.354Z" fill="#B55D51" fill-opacity="0.1"/>
        <path d="M294.834 506.715C367.614 628.83 323.209 787.681 388.684 913.863C474.603 1079.45 763.544 1160.35 729.133 1343.68C695.798 1521.29 421.313 1511.25 260.926 1594.53C147.263 1653.54 42.8175 1714.73 -76.2702 1761.86C-226.858 1821.45 -369.34 1931.26 -529.513 1907.31C-701.437 1881.6 -895.479 1791.88 -958.59 1629.92C-1023.05 1464.5 -835.449 1300.46 -835.166 1122.94C-834.898 954.681 -1039.02 790.551 -957.018 643.627C-875.865 498.228 -631.883 586.615 -488.529 501.883C-326.108 405.88 -269.658 124.663 -80.9814 125.827C101.07 126.95 201.635 350.339 294.834 506.715Z" fill="#B55D51" fill-opacity="0.1"/>
    </g>
    <defs>
        <clipPath id="clip0_877_182">
            <rect width="1728" height="1117" fill="white"/>
        </clipPath>
    </defs>
</svg>
