<svg width="448" height="107" viewBox="0 0 448 107" fill="none" xmlns="http://www.w3.org/2000/svg">
    <path d="M303.94 77.16C301.2 77.16 298.45 76.9999 295.72 77.1999C292.87 77.4199 291.88 76.12 291.96 73.54C291.98 72.92 291.86 72.3 291.91 71.69C292.14 68.68 291.76 66.8799 287.75 66.5999C281.96 66.1999 278.2 60.76 278.42 54.65C278.64 48.89 282.91 44.12 288.68 43.88C291.46 43.77 292.39 42.8499 293.11 40.2799C294.49 35.3699 298.92 32.57 304.17 32.59C309.42 32.61 313.62 35.46 315.06 40.49C315.74 42.88 316.69 43.75 319.29 43.93C324.37 44.28 328.76 49.22 329.27 54.43C329.77 59.51 326.27 65.2699 321 66.1699C316.9 66.8699 315.88 69.04 316.1 72.23C316.41 76.78 314.14 77.6399 310.28 77.1999C308.19 76.9599 306.05 77.16 303.93 77.16H303.94Z" fill="#B55D51"/>
    <path d="M83.89 45.93C83.89 49.39 83.84 52.8601 83.9 56.3201C84.04 63.4801 88.79 68.8301 95.23 69.1601C102.29 69.5301 107.72 64.8201 108.15 57.2301C108.55 50.0701 108.44 42.8801 108.23 35.7101C108.15 32.8201 109.09 32.2501 111.8 32.2801C121.03 32.3901 121.1 32.2801 121.01 41.5701C120.95 47.8701 121.31 54.1701 120.61 60.4701C119.32 72.0301 108.85 81.4301 96.67 81.7401C84.55 82.0501 73.38 73.1001 71.75 61.6001C70.46 52.4901 71.47 43.3101 71.15 34.1701C71.1 32.6401 71.7656 32.3301 73.15 32.3301H73.52C80 32.5001 84.0001 31.5001 83.89 33.5C83.8842 33.6048 83.89 44.6601 83.89 45.9001V45.93Z" fill="#353535"/>
    <path d="M259.96 65.29C259.96 70.42 259.87 74.5 260 78.58C260.06 80.44 259.61 81.07 257.58 81.14C247.14 81.47 247.14 81.53 247.14 71.32C247.14 66.37 247.23 61.42 247.12 56.48C246.96 49.41 241.92 44.37 235.22 44.4C228.2 44.44 223.18 49.37 223.07 56.59C222.96 63.76 222.96 70.94 223.07 78.11C223.1 80.17 222.89 81.35 220.33 81.13C217.13 80.85 212.94 82.14 210.94 80.56C208.84 78.9 210.32 74.57 210.27 71.41C210.18 66.22 210.14 61.02 210.36 55.83C210.9 43.35 220.03 33.19 231.64 31.95C244.81 30.53 255.76 37.82 259.19 50.47C260.6 55.67 259.78 61.05 259.99 65.3L259.96 65.29Z" fill="#353535"/>
    <path d="M52.56 50.04C48.16 50.04 44.19 50.02 40.21 50.05C39.09 50.05 38.49 49.48 37.74 48.73C32.09 43.12 24.25 42.89 19.18 48.09C14.35 53.05 14.51 60.79 19.39 65.76C24.36 70.82 33.8 70.38 37.62 65.01C38.5 63.77 39.72 63.48 41.2 63.53C44.07 63.63 46.95 63.73 49.8 63.51C52.66 63.28 52.48 64.39 51.69 66.45C48.12 75.76 38.08 82.27 27.57 81.98C16.91 81.68 7.24003 74.56 4.28003 64.82C0.900025 53.69 4.30002 43.02 13.33 36.44C21.96 30.15 33.91 30.09 42.99 36.44C47.58 39.65 50.73 43.97 52.55 50.03L52.56 50.04Z" fill="#353535"/>
    <path d="M361.41 23.89C361.53 26.59 360.66 30.08 362.04 31.77C363.48 33.54 367.15 32.33 369.83 32.3C371.93 32.28 373.1 32.55 372.86 35.06C372.59 37.87 373.74 41.5 372.35 43.32C370.86 45.26 367.02 43.95 364.22 43.93C362.14 43.92 361.37 44.43 361.48 46.6C361.67 50.05 361.45 53.52 361.6 56.98C361.85 62.83 364.98 66.84 370.65 68.09C372.68 68.54 373.32 69.21 373.17 71.17C373.01 73.14 373.14 75.12 373.14 77.1C373.14 81.41 372.94 81.57 368.83 80.7C356.88 78.17 349.02 68.99 348.86 56.87C348.68 43.89 348.86 30.91 348.77 17.93C348.75 15.85 349.29 14.93 351.45 15.25C351.94 15.32 352.44 15.26 352.94 15.26C358.673 15.26 361.503 18.13 361.43 23.87L361.41 23.89Z" fill="#353535"/>
    <path d="M154.93 48.71C154.93 58.49 154.86 68.26 154.98 78.04C155.01 80.35 154.56 81.43 151.98 81.13C148.81 80.75 144.56 82.47 142.71 80.43C141.14 78.69 142.19 74.57 142.19 71.5C142.17 53.93 142.24 36.36 142.12 18.79C142.1 16.17 142.52 14.89 145.5 15.31C148.53 15.74 152.62 14.01 154.39 16C155.9 17.7 154.91 21.64 154.92 24.59C154.95 32.63 154.93 40.68 154.93 48.72V48.71Z" fill="#353535"/>
    <path d="M190 56.56C190 63.86 189.92 71.16 190.05 78.45C190.09 80.58 189.43 81.31 187.32 81.1C184.01 80.78 179.71 82.46 177.66 80.37C176.08 78.77 177.19 74.51 177.18 71.44C177.16 59.32 177.24 47.19 177.12 35.07C177.1 32.69 177.65 31.71 180.17 32.01C183.34 32.39 187.58 30.65 189.43 32.77C191 34.57 189.97 38.65 189.99 41.71C190.03 46.66 190 51.61 190 56.55V56.56Z" fill="#353535"/>
    <path d="M183.36 11.77C187.63 11.69 191.11 14.9 191.22 19.03C191.34 23.54 187.85 27.1 183.31 27.08C179.32 27.07 175.81 23.47 175.81 19.39C175.81 15.22 179.15 11.85 183.35 11.77H183.36Z" fill="#353535"/>
    <path d="M304.07 78.9699C306.92 78.9699 309.78 78.9599 312.63 78.9699C313.87 78.9699 315.22 78.8399 315.25 80.7099C315.27 82.4499 314.17 82.6599 312.79 82.6499C306.96 82.6299 301.12 82.6499 295.29 82.6499C293.99 82.6499 292.77 82.6499 292.7 80.8399C292.61 78.6199 294.2 78.9899 295.51 78.9699C298.36 78.9399 301.22 78.9599 304.07 78.9699Z" fill="#B55D51"/>
    <path fill-rule="evenodd" clip-rule="evenodd" d="M422.01 67.85C415.99 71.76 407.97 68.52 405.17 61.65L405.18 61.66C408.186 61.66 411.188 61.6511 414.185 61.6421C422.165 61.6183 430.117 61.5946 438.07 61.74C440.97 61.8 441.56 60.77 441.68 58.22C442.18 47.76 436.23 38.16 426.3 33.74C417.06 29.63 405.29 31.95 398.11 39.3C391.09 46.48 389.03 58.11 393.16 67.14C397.51 76.64 407.37 82.58 417.74 81.93C428.23 81.27 436.86 74.91 439.94 65.36C439.087 65.36 438.244 65.3634 437.407 65.3668C435.753 65.3734 434.124 65.3799 432.49 65.36C428.79 65.31 425.46 65.6 422.01 67.85ZM415.56 44.45C410.51 44.74 407.07 47.3 404.58 52.4399C406.052 52.4399 407.499 52.4404 408.926 52.4408C414.54 52.4424 419.85 52.4439 425.16 52.4199C425.338 52.4199 425.536 52.4416 425.739 52.4639C426.453 52.5419 427.231 52.6269 427.41 51.81C427.56 51.14 426.97 50.1699 426.47 49.5099C423.75 45.91 420.11 44.1899 415.56 44.45Z" fill="#353535"/>
    <path d="M303.99 34.24C304.66 34.5 305.75 34.79 306.69 35.33C307.49 35.79 308.72 36.37 308.17 37.54C307.46 39.04 306.51 37.85 305.78 37.39C303.58 36.01 301.8 36.72 300.13 38.34C299.54 38.91 298.91 39.92 298 39.09C296.89 38.06 298.1 37.33 298.69 36.67C299.96 35.23 301.59 34.4 303.98 34.25L303.99 34.24Z" fill="#FAF7EF"/>
    <path d="M287.47 48.74C288.17 48.81 289.12 48.58 289.2 49.63C289.26 50.34 288.54 50.65 287.95 50.75C285.56 51.18 284.32 52.7 283.79 54.92C283.61 55.68 283.37 56.42 282.38 56.21C281.42 56.01 281.47 55.19 281.52 54.44C281.71 51.77 284.93 48.69 287.48 48.73L287.47 48.74Z" fill="#FAF7EF"/>
</svg>
